# Blender 3.6.0
# www.blender.org
mtllib aba.mtl
o Cross
v -0.380130 1.978007 -0.120630
v -0.461454 1.850528 -0.120630
v -0.316390 1.767006 -0.120630
v 0.224078 1.200169 -0.120630
v 0.239464 2.048341 -0.120630
v -0.147150 2.206592 -0.120630
v 0.000000 2.285398 -0.120630
v -0.026264 2.276925 -0.120630
v -0.322984 1.112815 -0.120630
v -0.322984 1.200169 -0.120630
v -0.888218 1.354106 -0.120630
v -1.042073 1.272538 -0.120630
v -1.138782 1.121302 -0.120630
v -1.299231 1.060632 -0.120630
v -1.431395 0.912967 -0.120630
v -0.322984 0.713120 -0.120630
v -1.138782 0.704633 -0.120630
v 0.380131 1.978007 -0.120630
v 0.461454 1.850527 -0.120630
v 0.316391 1.767006 -0.120630
v 0.147150 2.206592 -0.120630
v 0.322985 1.112815 -0.120630
v 1.138783 1.121301 -0.120630
v -0.461454 -1.741300 -0.120630
v -0.224078 -1.497329 -0.120630
v -0.239463 -1.939113 -0.120630
v -0.003783 -2.177967 -0.120630
v -0.888218 0.471829 -0.120630
v -1.299231 0.765302 -0.120630
v 0.380130 -1.868780 -0.120630
v 0.461454 -1.741300 -0.120630
v 0.224078 0.625765 -0.120630
v 0.316390 -1.657778 -0.120630
v 0.239463 -1.939113 -0.120630
v 0.147149 -2.097365 -0.120630
v 0.026265 -2.167698 -0.120630
v 0.322984 0.625765 -0.120630
v 0.888219 0.471829 -0.120630
v 1.042074 0.553396 -0.120630
v 1.138783 0.704633 -0.120630
v 1.299231 0.765302 -0.120630
v 1.432656 0.912967 -0.120630
v -0.224077 0.625765 -0.120630
v 0.224077 -1.497330 -0.120630
v 0.694801 1.112815 -0.120630
v -0.694801 0.713120 -0.120630
v -0.239463 2.048341 -0.120630
v -0.224077 1.200169 -0.120630
v -0.316390 1.767006 0.120630
v -0.224077 1.606557 0.120630
v -1.138782 1.121302 0.120630
v -1.299231 1.060633 0.120630
v 0.239464 2.048341 0.120630
v 0.461454 1.850528 0.120630
v 0.224078 1.606557 -0.120630
v 0.026265 2.276925 -0.120630
v 0.322985 1.112815 0.120630
v 0.322985 1.200169 -0.120630
v 0.888219 1.354105 -0.120630
v 1.042074 1.272538 -0.120630
v 1.299231 1.060632 -0.120630
v 1.432929 0.913671 0.120630
v -0.461454 -1.741300 0.120630
v -0.316391 -1.657778 -0.120630
v -0.380131 -1.868780 -0.120630
v -0.147150 -2.097365 -0.120630
v -0.322984 0.625765 -0.120630
v -1.042073 0.553396 -0.120630
v 0.316390 -1.657778 0.120630
v 0.380130 -1.868780 0.120630
v 0.322985 0.713120 -0.120630
v 0.322984 0.625765 0.120630
v 0.888219 0.471829 0.120630
v 1.042074 0.553396 0.120630
v 1.299231 0.765302 0.120630
v -0.224077 1.606557 -0.120630
v 0.694801 0.713120 -0.120630
v -0.694801 1.112815 -0.120630
v -0.380130 1.978008 0.120630
v -0.461454 1.850528 0.120630
v 0.000000 1.707662 0.120630
v -0.239463 2.048341 0.120630
v -0.147150 2.206592 0.120630
v -0.003865 2.285988 0.120630
v -0.322984 1.112815 0.120630
v -0.322984 1.200169 0.120630
v -0.888218 1.354106 0.120630
v -1.042073 1.272539 0.120630
v -0.322984 0.713120 0.120630
v -0.694801 1.112815 0.120630
v 0.380131 1.978007 0.120630
v 0.224078 1.200169 0.120630
v 0.224078 1.606557 0.120630
v 0.316391 1.767006 0.120630
v 0.147150 2.206592 0.120630
v 0.026264 2.276926 0.120630
v 0.322985 1.200169 0.120630
v 0.888219 1.354105 0.120630
v 1.042074 1.272538 0.120630
v 1.138783 1.121301 0.120630
v 1.299231 1.060632 0.120630
v 1.409128 0.935805 0.120630
v 1.138783 0.704633 0.120630
v -0.380131 -1.868780 0.120630
v -0.224077 0.625765 0.120630
v -0.316391 -1.657778 0.120630
v 0.239463 -1.939113 0.120630
v -0.239463 -1.939113 0.120630
v -0.147150 -2.097364 0.120630
v -0.026265 -2.167698 0.120630
v -0.322984 0.625765 0.120630
v -0.888218 0.471829 0.120630
v -1.042073 0.553396 0.120630
v -1.138782 0.704633 0.120630
v -1.299231 0.765302 0.120630
v -1.433340 0.912967 0.120630
v 0.461454 -1.741300 0.120630
v 0.224077 -1.497329 0.120630
v 0.147150 -2.097364 0.120630
v 0.002736 -2.177846 0.120630
v 0.322985 0.713120 0.120630
v -0.224078 -1.497330 0.120630
v 0.224078 0.625765 0.120630
v -0.224077 1.200169 0.120630
v 0.694801 1.112815 0.120630
v 0.694801 0.713120 0.120630
v -0.694801 0.713120 0.120630
vn -0.6163 -0.1647 -0.7701
vn -0.4507 -0.4506 -0.7706
vn 0.3015 0.3015 -0.9045
vn 0.0024 0.7642 -0.6450
vn -0.2979 0.6663 -0.6836
vn -0.0833 0.7715 0.6308
vn -0.4262 0.6215 -0.6574
vn -0.8110 -0.0000 -0.5851
vn -0.4249 0.6223 0.6575
vn -0.3901 -0.4808 -0.7853
vn -0.5127 0.5562 -0.6541
vn 0.1637 0.7922 -0.5879
vn -0.3901 0.4808 -0.7853
vn -0.3015 -0.3015 -0.9045
vn -0.3015 0.3015 -0.9045
vn 0.6163 -0.1647 -0.7701
vn 0.2968 0.6671 -0.6833
vn 0.4265 0.6218 -0.6569
vn 0.3901 0.4808 -0.7853
vn 0.3901 0.4808 0.7853
vn 0.5127 0.5562 -0.6541
vn 0.3901 -0.4808 -0.7853
vn -0.1637 0.7922 -0.5879
vn -0.3061 -0.6587 0.6873
vn -0.0709 -0.7743 -0.6288
vn 0.0694 -0.7746 0.6286
vn -0.5127 -0.5562 -0.6541
vn 0.1637 -0.7922 -0.5879
vn 0.1637 -0.7922 0.5879
vn -0.4262 -0.6215 -0.6574
vn -0.4249 -0.6223 0.6575
vn 0.6163 0.1647 -0.7701
vn -0.4507 0.4506 -0.7706
vn -0.6163 0.1647 -0.7701
vn 0.3031 -0.6617 -0.6858
vn 0.5127 -0.5562 -0.6541
vn -0.1637 -0.7922 -0.5879
vn -0.2485 -0.5178 -0.8186
vn 0.3015 -0.3015 -0.9045
vn -0.2485 0.5178 -0.8186
vn 0.3015 0.3015 0.9045
vn 0.2485 -0.5178 -0.8186
vn -0.3015 -0.3015 0.9045
vn 0.2485 0.5178 -0.8186
vn -0.3015 0.3015 0.9045
vn -0.6163 0.1647 0.7701
vn 0.4303 -0.4589 0.7774
vn 0.5325 -0.5384 -0.6532
vn 0.4303 -0.4589 -0.7774
vn -0.5774 -0.5774 -0.5774
vn -0.5076 -0.5635 -0.6518
vn -0.7947 0.1947 0.5750
vn -0.7947 0.1947 -0.5750
vn 0.5774 0.5774 -0.5774
vn 0.5346 0.5353 0.6540
vn 0.5346 0.5353 -0.6540
vn -0.5774 0.5774 -0.5774
vn -0.7947 -0.1947 0.5750
vn -0.5076 0.5635 -0.6518
vn -0.7947 -0.1947 -0.5750
vn 0.3015 -0.3015 0.9045
vn -0.3901 0.4808 0.7853
vn -0.5127 0.5562 0.6541
vn -0.3901 -0.4808 0.7853
vn 0.1637 0.7922 0.5879
vn 0.5127 0.5562 0.6541
vn 0.4291 0.6203 0.6566
vn 0.4989 0.4843 0.7188
vn 0.3901 -0.4808 0.7853
vn -0.1637 0.7922 0.5879
vn -0.2485 0.5178 0.8186
vn 0.4507 0.4506 0.7706
vn 0.6163 0.1647 0.7701
vn -0.5127 -0.5562 0.6541
vn 0.8154 0.0370 0.5777
vn 0.4247 -0.6220 0.6578
vn 0.5127 -0.5562 0.6541
vn -0.1637 -0.7922 0.5879
vn 0.2485 0.5178 0.8186
vn 0.5774 -0.5774 0.5774
vn -0.5322 -0.5381 -0.6536
vn -0.5346 -0.5353 0.6540
vn -0.4507 0.4506 0.7706
vn 0.4507 -0.4506 0.7706
vn 0.6163 -0.1647 0.7701
vn -0.6163 -0.1647 0.7701
vn -0.5322 0.5388 -0.6531
vn 0.4303 0.4589 -0.7774
vn -0.4303 0.4589 -0.7774
vn 0.7947 -0.1947 -0.5750
vn 0.5076 0.5635 -0.6518
vn 0.4507 -0.4506 -0.7706
vn 0.8140 0.0022 -0.5808
vn -0.4303 -0.4589 -0.7774
vn 0.2485 -0.5178 0.8186
vn 0.5774 -0.5774 -0.5774
vn 0.5076 -0.5635 -0.6518
vn 0.7947 0.1947 -0.5750
vn 0.4507 0.4506 -0.7706
vn -0.2486 -0.5178 0.8186
vn 0.4249 -0.6220 -0.6577
vn 0.7947 0.1947 0.5750
vn 0.5076 -0.5635 0.6518
vn 0.7947 -0.1947 0.5750
vn 0.4303 0.4589 0.7774
vn 0.5076 0.5635 0.6518
vn -0.4507 -0.4506 0.7706
vn -0.5774 0.5773 0.5774
vn -0.5076 0.5635 0.6518
vn -0.0000 -0.0000 1.0000
vn -0.4303 0.4589 0.7774
vn -0.5321 0.5389 0.6530
vn -0.8149 -0.0000 0.5796
vn 0.5774 0.5773 0.5774
vn 0.2913 0.6711 0.6817
vn -0.5774 -0.5774 0.5774
vn -0.5076 -0.5635 0.6518
vn -0.4303 -0.4589 0.7774
vn 0.5325 -0.5384 0.6531
vt 0.394316 0.057712
vt 0.401731 0.030306
vt 0.398759 0.150392
vt 0.500406 0.461905
vt 0.500406 0.457672
vt 0.537409 0.461369
vt 0.500406 0.030845
vt 0.500406 0.000166
vt 0.537409 0.030845
vt 0.197303 0.056140
vt 0.269429 0.005107
vt 0.294953 0.012970
vt 0.242533 0.010995
vt 0.286615 0.143778
vt 0.330003 0.100471
vt 0.350202 0.101743
vt 0.399993 0.170593
vt 0.287849 0.163979
vt 0.442873 0.106360
vt 0.500406 0.466138
vt 0.500406 0.892965
vt 0.500406 0.866656
vt 0.537409 0.866656
vt 0.495244 0.231346
vt 0.444074 0.303376
vt 0.487428 0.205807
vt 0.489305 0.258231
vt 0.574714 0.004440
vt 0.537711 0.000661
vt 0.574714 0.000151
vt 0.537712 0.640721
vt 0.537711 0.614013
vt 0.574714 0.614013
vt 0.537711 0.725087
vt 0.537711 0.694563
vt 0.574714 0.694563
vt 0.191364 0.083025
vt 0.199180 0.108564
vt 0.105938 0.442663
vt 0.029962 0.401378
vt 0.057381 0.394014
vt 0.575017 0.725256
vt 0.575017 0.720968
vt 0.612019 0.724891
vt 0.417179 0.309265
vt 0.391655 0.301401
vt 0.396891 0.254261
vt 0.356605 0.213900
vt 0.336406 0.212628
vt 0.500406 0.764986
vt 0.500406 0.707960
vt 0.537409 0.707960
vt 0.537711 0.566584
vt 0.537711 0.509557
vt 0.574714 0.509557
vt 0.500406 0.215850
vt 0.500406 0.158824
vt 0.537409 0.215850
vt 0.537711 0.155365
vt 0.574714 0.155365
vt 0.537711 0.480990
vt 0.612019 0.671419
vt 0.575017 0.699518
vt 0.575017 0.671419
vt 0.537711 0.496160
vt 0.537711 0.126975
vt 0.537711 0.078110
vt 0.574714 0.101302
vt 0.537711 0.101302
vt 0.500406 0.694562
vt 0.537409 0.487588
vt 0.500406 0.487588
vt 0.500406 0.229248
vt 0.537409 0.360810
vt 0.500406 0.384002
vt 0.500406 0.360810
vt 0.398759 0.650392
vt 0.356605 0.713900
vt 0.287849 0.663979
vt 0.537409 0.057154
vt 0.537409 0.084686
vt 0.500406 0.084686
vt 0.495244 0.731346
vt 0.444074 0.803376
vt 0.487428 0.705807
vt 0.489305 0.758231
vt 0.399993 0.670593
vt 0.537409 0.839124
vt 0.500406 0.839124
vt 0.537409 0.892965
vt 0.537409 0.918473
vt 0.197303 0.556140
vt 0.269429 0.505107
vt 0.294953 0.512970
vt 0.242533 0.510995
vt 0.289717 0.560110
vt 0.105938 0.942663
vt 0.029962 0.901378
vt 0.057381 0.894014
vt 0.574714 0.668254
vt 0.537711 0.668254
vt 0.417179 0.809265
vt 0.391655 0.801401
vt 0.187927 0.501570
vt 0.193106 0.501746
vt 0.186504 0.532150
vt 0.191364 0.583025
vt 0.199180 0.608564
vt 0.286615 0.643778
vt 0.330003 0.600471
vt 0.336406 0.712628
vt 0.440279 0.710955
vt 0.612019 0.570042
vt 0.575017 0.570042
vt 0.612019 0.244418
vt 0.612019 0.229248
vt 0.575017 0.215851
vt 0.612019 0.215850
vt 0.612019 0.598433
vt 0.537711 0.025890
vt 0.574714 0.025890
vt 0.574714 0.126975
vt 0.500406 0.617063
vt 0.537409 0.588673
vt 0.537409 0.617063
vt 0.537409 0.679392
vt 0.537409 0.306747
vt 0.500406 0.306747
vt 0.537409 0.244418
vt 0.417730 0.000525
vt 0.395081 0.005510
vt 0.467787 0.001049
vt 0.492497 0.060163
vt 0.440606 0.008175
vt 0.339485 0.091007
vt 0.500406 0.057154
vt 0.218563 0.000151
vt 0.187947 0.001683
vt 0.289717 0.060110
vt 0.246329 0.103416
vt 0.495077 0.105694
vt 0.500104 0.083054
vt 0.470293 0.098996
vt 0.494211 0.012253
vt 0.488519 0.006551
vt 0.492285 0.008484
vt 0.499674 0.032996
vt 0.500104 0.282221
vt 0.498664 0.312800
vt 0.409475 0.161128
vt 0.500406 0.923602
vt 0.440279 0.210955
vt 0.000151 0.417320
vt 0.007757 0.440211
vt 0.574714 0.566584
vt 0.007634 0.491549
vt 0.000581 0.467378
vt 0.277132 0.153243
vt 0.575017 0.229248
vt 0.186504 0.032150
vt 0.082525 0.499849
vt 0.105174 0.494864
vt 0.098523 0.470068
vt 0.032468 0.499325
vt 0.059648 0.492200
vt 0.612019 0.158824
vt 0.575017 0.111395
vt 0.612019 0.111395
vt 0.011735 0.493823
vt 0.347122 0.223364
vt 0.575017 0.084686
vt 0.612019 0.084686
vt 0.612019 0.057154
vt 0.575017 0.057154
vt 0.612019 0.030845
vt 0.575017 0.030845
vt 0.575017 0.000168
vt 0.612019 0.000207
vt 0.468045 0.314220
vt 0.575017 0.598433
vt 0.612019 0.624106
vt 0.575017 0.624106
vt 0.575017 0.244418
vt 0.612019 0.647298
vt 0.575017 0.647298
vt 0.500406 0.563000
vt 0.537409 0.563000
vt 0.537409 0.923659
vt 0.500406 0.539808
vt 0.537409 0.515687
vt 0.537409 0.539808
vt 0.500406 0.588673
vt 0.537409 0.335137
vt 0.500406 0.335137
vt 0.500406 0.244418
vt 0.537409 0.229248
vt 0.500103 0.583054
vt 0.429570 0.571081
vt 0.492497 0.560163
vt 0.495076 0.605694
vt 0.470293 0.598996
vt 0.537409 0.111394
vt 0.537409 0.158824
vt 0.442873 0.606360
vt 0.492529 0.508962
vt 0.499674 0.532996
vt 0.409475 0.661128
vt 0.500103 0.782221
vt 0.498671 0.812840
vt 0.537409 0.000168
vt 0.350202 0.601743
vt 0.500406 0.679392
vt 0.537409 0.694562
vt 0.417730 0.500525
vt 0.395081 0.505510
vt 0.401731 0.530306
vt 0.394316 0.557712
vt 0.467787 0.501049
vt 0.440606 0.508175
vt 0.537409 0.812416
vt 0.500406 0.812416
vt 0.537409 0.466138
vt 0.488520 0.506551
vt 0.339485 0.591007
vt 0.218563 0.500151
vt 0.574714 0.496159
vt 0.082525 0.999849
vt 0.105174 0.994864
vt 0.098523 0.970068
vt 0.032468 0.999325
vt 0.007757 0.940211
vt 0.059649 0.992200
vt 0.574714 0.640721
vt 0.007695 0.991680
vt 0.011735 0.993823
vt 0.347122 0.723364
vt 0.396891 0.754261
vt 0.574714 0.725245
vt 0.468045 0.814220
vt 0.000151 0.917321
vt 0.246329 0.603416
vt 0.000581 0.967378
vt 0.277132 0.653243
vt 0.575017 0.158824
vt 0.612019 0.699518
vt 0.537409 0.764986
vt 0.574714 0.480990
vt 0.574714 0.053989
vt 0.537711 0.053989
vt 0.574714 0.078110
vt 0.537409 0.436222
vt 0.500406 0.436222
vt 0.537409 0.384002
vt 0.500406 0.408123
vt 0.005178 0.394680
vt 0.500406 0.515687
vt 0.500406 0.111394
vt 0.005178 0.894680
vt 0.537409 0.408123
s 1
usemtl Cross
f 76/1/1 3/2/2 4/3/3
f 7/4/4 8/5/5 84/6/6
f 14/7/7 15/8/8 52/9/9
f 17/10/10 12/11/11 11/12/12
f 17/10/10 13/13/13 12/11/11
f 16/14/14 9/15/15 48/16/15
f 4/3/3 22/17/3 43/18/14
f 3/2/2 55/19/16 4/3/3
f 56/20/17 7/4/4 84/6/6
f 61/21/18 23/22/19 100/23/20
f 60/24/21 40/25/22 59/26/23
f 23/27/19 40/25/22 60/24/21
f 110/28/24 27/29/25 120/30/26
f 68/31/27 28/32/28 112/33/29
f 15/34/8 29/35/30 115/36/31
f 43/18/14 48/16/15 4/3/3
f 68/37/27 17/10/10 28/38/28
f 44/39/32 64/40/33 25/41/34
f 27/42/25 36/43/35 120/44/26
f 40/25/22 39/45/36 38/46/37
f 77/47/38 40/25/22 38/46/37
f 22/17/3 71/48/39 32/49/39
f 43/18/14 32/49/39 25/41/34
f 22/17/3 77/47/38 71/48/39
f 45/50/40 22/51/3 57/52/41
f 46/53/42 16/54/14 89/55/43
f 9/56/15 78/57/44 85/58/45
f 25/59/34 122/60/46 43/61/14
f 107/62/47 35/63/48 34/64/49
f 67/65/50 89/55/43 16/54/14
f 64/66/33 122/60/46 25/59/34
f 65/67/51 63/68/52 24/69/53
f 58/70/54 57/52/41 22/51/3
f 56/20/17 95/71/55 21/72/56
f 85/58/45 10/73/57 9/56/15
f 80/74/58 1/75/59 2/76/60
f 124/77/45 89/78/43 123/79/61
f 51/80/62 88/81/63 12/82/11
f 88/83/63 114/84/64 87/85/65
f 51/86/62 114/84/64 88/83/63
f 85/87/45 89/78/43 124/77/45
f 99/88/66 100/23/20 60/89/21
f 101/90/67 102/91/68 61/21/18
f 103/92/69 99/93/66 98/94/70
f 103/92/69 100/95/20 99/93/66
f 125/96/71 103/92/69 98/94/70
f 122/97/46 69/98/72 118/99/73
f 114/100/64 115/36/31 17/101/10
f 114/84/64 113/102/74 112/103/29
f 62/104/75 102/105/68 75/106/76
f 74/107/77 103/92/69 73/108/78
f 121/109/61 57/110/41 123/79/61
f 123/79/61 105/111/43 118/99/73
f 90/112/79 89/78/43 85/87/45
f 118/113/73 44/114/32 123/115/61
f 72/116/80 71/117/39 121/118/61
f 69/119/72 44/114/32 118/113/73
f 66/120/81 110/28/24 109/121/82
f 64/66/33 63/68/52 106/122/83
f 55/123/16 94/124/84 93/125/85
f 55/123/16 93/125/85 92/126/41
f 50/127/86 76/128/1 124/129/45
f 1/130/59 3/2/2 2/131/60
f 6/132/87 5/133/88 47/134/89
f 5/133/88 1/130/59 47/134/89
f 51/80/62 14/7/7 52/9/9
f 48/16/15 9/15/15 10/135/57
f 12/82/11 13/136/13 51/80/62
f 14/137/7 17/10/10 15/138/8
f 17/10/10 78/139/44 46/140/42
f 19/141/90 5/133/88 18/142/91
f 3/2/2 19/141/90 20/143/92
f 56/144/17 8/145/5 7/146/4
f 3/2/2 20/143/92 55/19/16
f 5/133/88 8/145/5 21/147/56
f 40/25/22 61/148/18 42/149/93
f 58/150/54 22/17/3 4/3/3
f 100/23/20 23/22/19 60/89/21
f 102/91/68 42/151/93 61/21/18
f 40/25/22 45/152/40 59/26/23
f 65/153/51 64/40/33 26/154/94
f 127/155/95 28/32/28 46/53/42
f 26/154/94 27/156/25 66/157/81
f 67/158/50 16/14/14 43/18/14
f 123/115/61 37/159/96 72/116/80
f 115/36/31 29/35/30 17/101/10
f 29/160/30 15/138/8 17/10/10
f 46/140/42 28/38/28 17/10/10
f 22/17/3 32/49/39 43/18/14
f 30/161/97 64/40/33 31/162/98
f 33/163/99 31/162/98 64/40/33
f 35/164/48 26/154/94 34/165/49
f 44/39/32 33/163/99 64/40/33
f 26/154/94 30/161/97 34/165/49
f 126/166/100 38/167/37 73/168/78
f 27/156/25 35/164/48 36/169/35
f 32/49/39 71/48/39 37/170/96
f 73/168/78 39/171/36 74/172/77
f 103/173/69 39/171/36 40/174/22
f 75/175/76 40/174/22 41/176/101
f 75/175/76 42/177/93 62/178/75
f 9/15/15 46/140/42 78/139/44
f 40/25/22 42/149/93 41/179/101
f 25/41/34 32/49/39 44/39/32
f 48/16/15 76/1/1 4/3/3
f 45/152/40 77/47/38 22/17/3
f 33/180/99 117/181/102 31/182/98
f 123/115/61 44/114/32 32/183/39
f 71/117/39 72/116/80 37/159/96
f 34/64/49 70/184/103 107/62/47
f 44/114/32 69/119/72 33/180/99
f 30/185/97 117/181/102 70/184/103
f 94/124/84 19/186/90 54/187/104
f 27/29/25 110/28/24 66/120/81
f 24/69/53 63/68/52 64/66/33
f 42/151/93 102/91/68 62/188/75
f 18/189/91 53/190/105 91/191/106
f 20/192/92 94/124/84 55/123/16
f 19/186/90 91/191/106 54/187/104
f 53/190/105 21/72/56 95/71/55
f 2/76/60 49/193/107 80/74/58
f 3/194/2 50/127/86 49/193/107
f 48/195/15 86/196/108 124/129/45
f 79/197/109 81/198/110 82/199/111
f 81/198/110 80/200/58 49/201/107
f 78/57/44 87/202/65 90/203/79
f 81/198/110 49/201/107 50/204/86
f 81/198/110 50/204/86 124/77/45
f 82/199/111 84/205/6 83/206/112
f 86/207/108 85/87/45 124/77/45
f 87/202/65 12/82/11 88/81/63
f 114/84/64 52/208/9 116/209/113
f 15/8/8 116/210/113 52/9/9
f 123/79/61 92/211/41 124/77/45
f 90/112/79 87/85/65 114/84/64
f 4/212/3 97/213/114 58/70/54
f 91/214/106 81/198/110 54/215/104
f 94/216/84 54/215/104 81/198/110
f 124/77/45 93/217/85 81/198/110
f 93/217/85 94/216/84 81/198/110
f 95/218/55 82/199/111 53/219/105
f 82/199/111 91/214/106 53/219/105
f 45/50/40 98/220/70 59/221/23
f 84/6/6 96/222/115 56/20/17
f 84/205/6 95/218/55 96/223/115
f 92/211/41 57/110/41 97/224/114
f 59/221/23 99/88/66 60/89/21
f 101/225/67 103/92/69 102/105/68
f 100/23/20 101/90/67 61/21/18
f 43/61/14 111/226/116 67/65/50
f 89/78/43 105/111/43 123/79/61
f 104/227/117 69/98/72 63/228/52
f 106/229/83 63/228/52 69/98/72
f 109/230/82 107/231/47 108/232/118
f 122/97/46 106/229/83 69/98/72
f 107/231/47 104/227/117 108/232/118
f 17/101/10 113/233/74 114/100/64
f 120/234/26 109/230/82 110/235/24
f 105/111/43 89/78/43 111/236/116
f 112/33/29 113/233/74 68/31/27
f 114/84/64 127/237/95 90/112/79
f 115/36/31 116/238/113 15/34/8
f 114/84/64 116/209/113 115/239/31
f 70/240/103 69/98/72 107/231/47
f 103/92/69 126/241/100 73/108/78
f 107/231/47 120/234/26 119/242/119
f 72/243/80 121/109/61 123/79/61
f 75/106/76 102/105/68 103/92/69
f 121/109/61 125/96/71 57/110/41
f 118/99/73 105/111/43 122/97/46
f 121/118/61 77/244/38 126/166/100
f 119/245/119 36/43/35 35/63/48
f 57/52/41 125/246/71 45/50/40
f 89/78/43 90/112/79 127/237/95
f 89/55/43 127/155/95 46/53/42
f 78/57/44 90/203/79 85/58/45
f 124/129/45 76/128/1 48/195/15
f 4/212/3 55/123/16 92/126/41
f 43/61/14 122/60/46 105/247/43
f 108/248/118 65/67/51 26/249/94
f 119/245/119 35/63/48 107/62/47
f 89/55/43 67/65/50 111/226/116
f 122/60/46 64/66/33 106/122/83
f 109/121/82 26/249/94 66/120/81
f 63/68/52 65/67/51 104/250/117
f 83/251/112 8/5/5 6/252/87
f 57/52/41 58/70/54 97/213/114
f 95/71/55 56/20/17 96/222/115
f 86/196/108 10/73/57 85/58/45
f 79/253/109 47/254/89 1/75/59
f 47/254/89 83/251/112 6/252/87
f 79/253/109 1/75/59 80/74/58
f 43/18/14 16/14/14 48/16/15
f 1/130/59 5/133/88 3/2/2
f 6/132/87 8/145/5 5/133/88
f 51/80/62 13/136/13 14/7/7
f 14/137/7 13/13/13 17/10/10
f 17/10/10 11/12/12 78/139/44
f 19/141/90 3/2/2 5/133/88
f 56/144/17 21/147/56 8/145/5
f 40/25/22 23/27/19 61/148/18
f 40/25/22 77/47/38 45/152/40
f 65/153/51 24/255/53 64/40/33
f 127/155/95 112/33/29 28/32/28
f 123/115/61 32/183/39 37/159/96
f 30/161/97 26/154/94 64/40/33
f 35/164/48 27/156/25 26/154/94
f 126/166/100 77/244/38 38/167/37
f 73/168/78 38/167/37 39/171/36
f 103/173/69 74/172/77 39/171/36
f 75/175/76 103/173/69 40/174/22
f 75/175/76 41/176/101 42/177/93
f 9/15/15 16/14/14 46/140/42
f 33/180/99 69/119/72 117/181/102
f 34/64/49 30/185/97 70/184/103
f 30/185/97 31/182/98 117/181/102
f 94/124/84 20/192/92 19/186/90
f 18/189/91 5/256/88 53/190/105
f 19/186/90 18/189/91 91/191/106
f 53/190/105 5/256/88 21/72/56
f 2/76/60 3/194/2 49/193/107
f 3/194/2 76/128/1 50/127/86
f 48/195/15 10/73/57 86/196/108
f 79/197/109 80/200/58 81/198/110
f 78/57/44 11/257/12 87/202/65
f 87/202/65 11/257/12 12/82/11
f 114/84/64 51/86/62 52/208/9
f 123/79/61 57/110/41 92/211/41
f 4/212/3 92/126/41 97/213/114
f 91/214/106 82/199/111 81/198/110
f 124/77/45 92/211/41 93/217/85
f 95/218/55 84/205/6 82/199/111
f 45/50/40 125/246/71 98/220/70
f 59/221/23 98/220/70 99/88/66
f 101/225/67 100/95/20 103/92/69
f 43/61/14 105/247/43 111/226/116
f 104/227/117 107/231/47 69/98/72
f 109/230/82 120/234/26 107/231/47
f 17/101/10 68/31/27 113/233/74
f 114/84/64 112/103/29 127/237/95
f 70/240/103 117/258/102 69/98/72
f 103/92/69 125/96/71 126/241/100
f 121/109/61 126/241/100 125/96/71
f 121/118/61 71/117/39 77/244/38
f 119/245/119 120/44/26 36/43/35
f 108/248/118 104/250/117 65/67/51
f 109/121/82 108/248/118 26/249/94
f 83/251/112 84/6/6 8/5/5
f 79/253/109 82/259/111 47/254/89
f 47/254/89 82/259/111 83/251/112
